<svg width="128" height="128" viewBox="0 0 128 128" fill="none" xmlns="http://www.w3.org/2000/svg">
<path d="M45.775 45.4939C45.6153 45.5841 45.4825 45.7148 45.3903 45.8728C45.298 46.0307 45.2496 46.2102 45.25 46.3929V85.75C45.25 86.3217 45.7167 86.7857 46.2917 86.7857H81.7083C81.9846 86.7857 82.2496 86.6766 82.4449 86.4824C82.6403 86.2881 82.75 86.0247 82.75 85.75V46.3929C82.7504 46.2102 82.702 46.0307 82.6097 45.8728C82.5175 45.7148 82.3847 45.5841 82.225 45.4939C81.5078 45.0807 80.9851 44.4012 80.7717 43.6049C80.5584 42.8085 80.672 41.9605 81.0875 41.2474C81.503 40.5343 82.1864 40.0146 82.9873 39.8025C83.7883 39.5904 84.6411 39.7033 85.3583 40.1164C87.6125 41.4131 89 43.8036 89 46.3929V85.75C89 87.6728 88.2318 89.5169 86.8643 90.8765C85.4969 92.2362 83.6422 93 81.7083 93H46.2917C44.3578 93 42.5031 92.2362 41.1357 90.8765C39.7682 89.5169 39 87.6728 39 85.75V46.3929C39 43.8036 40.3875 41.4131 42.6417 40.1164C43.3589 39.7033 44.2117 39.5904 45.0127 39.8025C45.8136 40.0146 46.497 40.5343 46.9125 41.2474C47.328 41.9605 47.4416 42.8085 47.2283 43.6049C47.0149 44.4012 46.4922 45.0807 45.775 45.4939ZM54.625 35H73.375C74.2038 35 74.9987 35.3274 75.5847 35.9101C76.1708 36.4928 76.5 37.2831 76.5 38.1071V50.5357C76.5 51.3598 76.1708 52.1501 75.5847 52.7328C74.9987 53.3155 74.2038 53.6429 73.375 53.6429H54.625C53.7962 53.6429 53.0013 53.3155 52.4153 52.7328C51.8292 52.1501 51.5 51.3598 51.5 50.5357V38.1071C51.5 37.2831 51.8292 36.4928 52.4153 35.9101C53.0013 35.3274 53.7962 35 54.625 35ZM57.75 47.4286H70.25V41.2143H57.75V47.4286Z" fill="white"/>
</svg>
