<svg width="128" height="128" viewBox="0 0 128 128" fill="none" xmlns="http://www.w3.org/2000/svg">
<path d="M77.755 68.3657C77.1402 71.563 75.4307 74.4463 72.9204 76.5198C70.4101 78.5934 67.2559 79.7277 64 79.7277C60.7441 79.7277 57.5899 78.5934 55.0796 76.5198C52.5693 74.4463 50.8598 71.563 50.245 68.3657H38.625C37.9288 68.3657 37.2611 68.0891 36.7688 67.5968C36.2766 67.1045 36 66.4369 36 65.7407C36 65.0445 36.2766 64.3768 36.7688 63.8845C37.2611 63.3922 37.9288 63.1157 38.625 63.1157H50.245C50.8598 59.9183 52.5693 57.035 55.0796 54.9615C57.5899 52.8879 60.7441 51.7537 64 51.7537C67.2559 51.7537 70.4101 52.8879 72.9204 54.9615C75.4307 57.035 77.1402 59.9183 77.755 63.1157H89.375C90.0712 63.1157 90.7389 63.3922 91.2312 63.8845C91.7234 64.3768 92 65.0445 92 65.7407C92 66.4369 91.7234 67.1045 91.2312 67.5968C90.7389 68.0891 90.0712 68.3657 89.375 68.3657H77.755ZM72.75 65.7407C72.75 63.42 71.8281 61.1944 70.1872 59.5535C68.5462 57.9125 66.3206 56.9907 64 56.9907C61.6794 56.9907 59.4538 57.9125 57.8128 59.5535C56.1719 61.1944 55.25 63.42 55.25 65.7407C55.25 68.0613 56.1719 70.2869 57.8128 71.9278C59.4538 73.5688 61.6794 74.4907 64 74.4907C66.3206 74.4907 68.5462 73.5688 70.1872 71.9278C71.8281 70.2869 72.75 68.0613 72.75 65.7407Z" fill="white"/>
</svg>
