<svg width="128" height="128" viewBox="0 0 128 128" fill="none" xmlns="http://www.w3.org/2000/svg">
<path d="M37 39.75C37 36.024 40.024 33 43.75 33H73.0103C74.8 33 76.5164 33.7097 77.7816 34.9787L89.0213 46.2184C90.2903 47.4836 91 49.2 91 50.9897V87.9643C91 89.7545 90.2888 91.4714 89.023 92.7373C87.7571 94.0031 86.0402 94.7143 84.25 94.7143H43.75C41.9598 94.7143 40.2429 94.0031 38.977 92.7373C37.7112 91.4714 37 89.7545 37 87.9643V39.75ZM43.75 38.7857C43.4943 38.7857 43.249 38.8873 43.0681 39.0681C42.8873 39.249 42.7857 39.4943 42.7857 39.75V87.9643C42.7857 88.4966 43.2177 88.9286 43.75 88.9286H84.25C84.5057 88.9286 84.751 88.827 84.9319 88.6461C85.1127 88.4653 85.2143 88.22 85.2143 87.9643V50.9897C85.2145 50.863 85.1898 50.7375 85.1414 50.6203C85.0931 50.5032 85.0222 50.3967 84.9327 50.307L73.693 39.0673C73.6033 38.9778 73.4968 38.9069 73.3797 38.8586C73.2625 38.8102 73.137 38.7855 73.0103 38.7857H43.75ZM64 45.5357C64.7672 45.5357 65.503 45.8405 66.0456 46.383C66.5881 46.9255 66.8929 47.6613 66.8929 48.4286V54.2143H72.6786C73.4458 54.2143 74.1816 54.5191 74.7241 55.0616C75.2666 55.6041 75.5714 56.3399 75.5714 57.1071C75.5714 57.8744 75.2666 58.6102 74.7241 59.1527C74.1816 59.6952 73.4458 60 72.6786 60H66.8929V65.7857C66.8929 66.5529 66.5881 67.2888 66.0456 67.8313C65.503 68.3738 64.7672 68.6786 64 68.6786C63.2328 68.6786 62.497 68.3738 61.9544 67.8313C61.4119 67.2888 61.1071 66.5529 61.1071 65.7857V60H55.3214C54.5542 60 53.8184 59.6952 53.2759 59.1527C52.7334 58.6102 52.4286 57.8744 52.4286 57.1071C52.4286 56.3399 52.7334 55.6041 53.2759 55.0616C53.8184 54.5191 54.5542 54.2143 55.3214 54.2143H61.1071V48.4286C61.1071 47.6613 61.4119 46.9255 61.9544 46.383C62.497 45.8405 63.2328 45.5357 64 45.5357ZM52.4286 76.3929C52.4286 75.6256 52.7334 74.8898 53.2759 74.3473C53.8184 73.8048 54.5542 73.5 55.3214 73.5H72.6786C73.4458 73.5 74.1816 73.8048 74.7241 74.3473C75.2666 74.8898 75.5714 75.6256 75.5714 76.3929C75.5714 77.1601 75.2666 77.8959 74.7241 78.4384C74.1816 78.9809 73.4458 79.2857 72.6786 79.2857H55.3214C54.5542 79.2857 53.8184 78.9809 53.2759 78.4384C52.7334 77.8959 52.4286 77.1601 52.4286 76.3929Z" fill="white"/>
</svg>
