<svg width="128" height="128" viewBox="0 0 128 128" fill="none" xmlns="http://www.w3.org/2000/svg">
<path d="M86.0726 78.7912C86.3514 78.9941 86.5876 79.2499 86.7675 79.544C86.9474 79.8382 87.0676 80.1649 87.1212 80.5055C87.1749 80.8461 87.1609 81.1939 87.08 81.5291C86.9992 81.8643 86.8531 82.1803 86.6501 82.459C84.9219 84.834 82.833 86.9241 80.459 88.6536C80.18 88.8565 79.8638 89.0025 79.5284 89.0832C79.193 89.1639 78.845 89.1778 78.5043 89.124C78.1635 89.0702 77.8367 88.9498 77.5425 88.7697C77.2483 88.5896 76.9924 88.3534 76.7895 88.0744C76.5866 87.7954 76.4406 87.4792 76.3599 87.1438C76.2792 86.8084 76.2653 86.4604 76.3191 86.1197C76.3729 85.7789 76.4932 85.4521 76.6733 85.1579C76.8534 84.8637 77.0897 84.6078 77.3687 84.4049C79.3007 82.999 81.0011 81.2997 82.4084 79.3687C82.818 78.8066 83.434 78.4301 84.121 78.3218C84.8081 78.2135 85.51 78.3824 86.0726 78.7912ZM76.7912 43.9264C76.9941 43.6476 77.2499 43.4115 77.544 43.2316C77.8382 43.0516 78.1649 42.9314 78.5055 42.8778C78.8461 42.8242 79.1939 42.8382 79.5291 42.919C79.8643 42.9999 80.1803 43.146 80.459 43.3489C82.834 45.0771 84.9241 47.1661 86.6536 49.5401C87.0634 50.1035 87.2326 50.8066 87.124 51.4948C87.0153 52.1829 86.6378 52.7998 86.0744 53.2096C85.511 53.6194 84.8078 53.7886 84.1197 53.6799C83.4315 53.5713 82.8147 53.1938 82.4049 52.6304C80.999 50.6983 79.2997 48.9979 77.3687 47.5907C76.8066 47.181 76.4301 46.5651 76.3218 45.878C76.2135 45.191 76.3824 44.4891 76.7912 43.9264ZM59.6213 38.3408C62.5224 37.8858 65.4767 37.8858 68.3777 38.3408C68.7183 38.3943 69.045 38.5144 69.3391 38.6942C69.6333 38.874 69.8891 39.11 70.0921 39.3886C70.295 39.6673 70.4411 39.9832 70.522 40.3184C70.6028 40.6535 70.6169 41.0013 70.5634 41.3418C70.5098 41.6824 70.3897 42.0091 70.2099 42.3032C70.0301 42.5974 69.7942 42.8532 69.5155 43.0562C69.2368 43.2591 68.9209 43.4052 68.5858 43.4861C68.2506 43.5669 67.9029 43.581 67.5623 43.5274C65.2016 43.1565 62.7974 43.1565 60.4367 43.5274C59.7658 43.5995 59.0928 43.4108 58.5571 43.0003C58.0215 42.5898 57.6643 41.989 57.5595 41.3224C57.4547 40.6557 57.6103 39.9743 57.9941 39.4192C58.378 38.8642 58.9606 38.478 59.6213 38.3408ZM39.3436 59.4374C40.0307 59.5459 40.6467 59.9227 41.0562 60.4851C41.4657 61.0475 41.6352 61.7495 41.5274 62.4367C41.1565 64.7974 41.1565 67.2016 41.5274 69.5623C41.581 69.9029 41.5669 70.2506 41.4861 70.5858C41.4052 70.9209 41.2591 71.2368 41.0562 71.5155C40.8532 71.7942 40.5974 72.0301 40.3032 72.2099C40.0091 72.3897 39.6824 72.5098 39.3418 72.5634C39.0013 72.6169 38.6535 72.6028 38.3184 72.522C37.9832 72.4411 37.6673 72.295 37.3886 72.0921C37.11 71.8891 36.874 71.6333 36.6942 71.3391C36.5144 71.045 36.3943 70.7183 36.3408 70.3777C35.8858 67.4767 35.8858 64.5224 36.3408 61.6213C36.3945 61.2807 36.5147 60.954 36.6947 60.6599C36.8747 60.3658 37.1109 60.1101 37.3897 59.9073C37.6686 59.7044 37.9847 59.5586 38.3199 59.478C38.6552 59.3973 39.003 59.3836 39.3436 59.4374ZM88.6555 59.4374C88.996 59.3836 89.3439 59.3973 89.6791 59.478C90.0144 59.5586 90.3305 59.7044 90.6093 59.9073C90.8882 60.1101 91.1243 60.3658 91.3043 60.6599C91.4843 60.954 91.6046 61.2807 91.6583 61.6213C92.1133 64.5226 92.1133 67.4764 91.6583 70.3777C91.5501 71.0655 91.1732 71.6822 90.6104 72.0921C90.0476 72.502 89.345 72.6715 88.6572 72.5634C87.9694 72.4552 87.3528 72.0783 86.9429 71.5155C86.533 70.9527 86.3635 70.2501 86.4716 69.5623C86.8426 67.2016 86.8426 64.7974 86.4716 62.4367C86.3638 61.7495 86.5333 61.0475 86.9428 60.4851C87.3523 59.9227 87.9683 59.5459 88.6555 59.4374ZM57.4374 90.6555C57.5459 89.9683 57.9227 89.3523 58.4851 88.9428C59.0475 88.5333 59.7495 88.3638 60.4367 88.4716C62.7974 88.8426 65.2016 88.8426 67.5623 88.4716C67.9029 88.4181 68.2506 88.4321 68.5858 88.513C68.9209 88.5938 69.2368 88.7399 69.5155 88.9429C69.7942 89.1458 70.0301 89.4017 70.2099 89.6958C70.3897 89.99 70.5098 90.3167 70.5634 90.6572C70.6169 90.9978 70.6028 91.3456 70.522 91.6807C70.4411 92.0158 70.295 92.3317 70.0921 92.6104C69.8891 92.8891 69.6333 93.1251 69.3391 93.3048C69.045 93.4846 68.7183 93.6047 68.3777 93.6583C65.4764 94.1133 62.5226 94.1133 59.6213 93.6583C59.2807 93.6046 58.954 93.4843 58.6599 93.3043C58.3658 93.1243 58.1101 92.8882 57.9073 92.6093C57.7044 92.3305 57.5586 92.0144 57.478 91.6791C57.3973 91.3439 57.3836 90.996 57.4374 90.6555ZM41.9264 78.7912C42.2051 78.5882 42.5211 78.4421 42.8563 78.3613C43.1915 78.2805 43.5393 78.2664 43.8799 78.3201C44.2205 78.3737 44.5472 78.4939 44.8414 78.6738C45.1355 78.8538 45.3913 79.0899 45.5942 79.3687C47.0001 81.3007 48.6993 83.0011 50.6304 84.4084C51.1493 84.8339 51.4858 85.4418 51.5709 86.1074C51.656 86.7731 51.4833 87.4461 51.0881 87.9884C50.693 88.5308 50.1053 88.9015 49.4456 89.0246C48.7859 89.1476 48.1041 89.0136 47.5401 88.6501C45.1651 86.9219 43.075 84.833 41.3454 82.459C41.1426 82.1801 40.9968 81.8639 40.9162 81.5286C40.8356 81.1932 40.8219 80.8453 40.8759 80.5047C40.9298 80.1641 41.0504 79.8374 41.2306 79.5434C41.4109 79.2494 41.6473 78.9938 41.9264 78.7912ZM51.2078 43.9264C51.6167 44.4891 51.7855 45.191 51.6772 45.878C51.569 46.5651 51.1924 47.181 50.6304 47.5907C48.6982 48.9978 46.9978 50.6982 45.5907 52.6304C45.1652 53.1493 44.5573 53.4858 43.8916 53.5709C43.226 53.656 42.553 53.4833 42.0106 53.0881C41.4682 52.693 41.0975 52.1053 40.9745 51.4456C40.8515 50.7859 40.9854 50.1041 41.3489 49.5401C43.0771 47.1651 45.1661 45.075 47.5401 43.3454C47.819 43.1426 48.1351 42.9968 48.4705 42.9162C48.8058 42.8356 49.1537 42.8219 49.4943 42.8759C49.8349 42.9298 50.1616 43.0504 50.4556 43.2306C50.7496 43.4109 51.0052 43.6473 51.2078 43.9264Z" fill="white"/>
</svg>
