<svg width="128" height="128" viewBox="0 0 128 128" fill="none" xmlns="http://www.w3.org/2000/svg">
<path d="M42 43.0577C42 39.7138 44.7138 37 48.0577 37H70.8554C72.4615 37 74.0019 37.6369 75.1373 38.7758L85.2242 48.8627C86.3631 49.9981 87 51.5385 87 53.1446V86.3269C87 87.9335 86.3618 89.4743 85.2257 90.6104C84.0897 91.7464 82.5489 92.3846 80.9423 92.3846H48.0577C46.4511 92.3846 44.9103 91.7464 43.7743 90.6104C42.6382 89.4743 42 87.9335 42 86.3269V43.0577ZM48.0577 42.1923C47.8282 42.1923 47.6081 42.2835 47.4458 42.4458C47.2835 42.6081 47.1923 42.8282 47.1923 43.0577V86.3269C47.1923 86.8046 47.58 87.1923 48.0577 87.1923H80.9423C81.1718 87.1923 81.3919 87.1011 81.5542 86.9388C81.7165 86.7765 81.8077 86.5564 81.8077 86.3269V57.7692H72.2885C70.6819 57.7692 69.1411 57.131 68.005 55.995C66.869 54.8589 66.2308 53.3181 66.2308 51.7115V42.1923H48.0577ZM71.4231 42.4069V51.7115C71.4231 52.1892 71.8108 52.5769 72.2885 52.5769H81.5931L81.555 52.5319L71.4681 42.445L71.4231 42.4069Z" fill="white"/>
</svg>
