<svg width="128" height="128" viewBox="0 0 128 128" fill="none" xmlns="http://www.w3.org/2000/svg">
<path d="M64 31C83.3375 31 99 46.5998 99 65.86C98.9981 73.164 96.6966 80.2836 92.4193 86.2166C88.142 92.1495 82.1044 96.5972 75.1562 98.9334C73.4063 99.282 72.75 98.1926 72.75 97.2776C72.75 96.101 72.7938 92.3536 72.7938 87.6911C72.7938 84.4229 71.7 82.3313 70.4313 81.242C78.2187 80.3705 86.4 77.4074 86.4 64.0298C86.4 60.1952 85.0437 57.1014 82.8125 54.6612C83.1625 53.7897 84.3875 50.2166 82.4625 45.4233C82.4625 45.4233 79.5313 44.4647 72.8375 48.9965C70.0375 48.2121 67.0625 47.8199 64.0875 47.8199C61.1125 47.8199 58.1375 48.2121 55.3375 48.9965C48.6438 44.5082 45.7125 45.4233 45.7125 45.4233C43.7875 50.2166 45.0125 53.7897 45.3625 54.6612C43.1313 57.1014 41.775 60.2388 41.775 64.0298C41.775 77.3638 49.9125 80.3705 57.7 81.242C56.6938 82.1135 55.775 83.6386 55.4688 85.9045C53.4563 86.8196 48.425 88.3011 45.275 83.0285C44.6188 81.9827 42.65 79.4118 39.8938 79.4554C36.9625 79.499 38.7125 81.1112 39.9375 81.7649C41.425 82.5928 43.1313 85.6866 43.525 86.6888C44.225 88.6497 46.5 92.3972 55.2938 90.7849C55.2938 93.7044 55.3375 96.4496 55.3375 97.2776C55.3375 98.1926 54.6813 99.2384 52.9313 98.9334C45.9603 96.6223 39.897 92.1837 35.6014 86.2472C31.3058 80.3106 28.9961 73.1776 29 65.86C29 46.5998 44.6625 31 64 31Z" fill="white"/>
</svg>
