<svg width="128" height="128" viewBox="0 0 128 128" fill="none" xmlns="http://www.w3.org/2000/svg">
<path d="M64 31C82.225 31 97 45.775 97 64C97 82.225 82.225 97 64 97C45.775 97 31 82.225 31 64C31 45.775 45.775 31 64 31ZM35.5 64C35.5 71.5587 38.5027 78.8078 43.8475 84.1525C49.1922 89.4973 56.4413 92.5 64 92.5C71.5587 92.5 78.8078 89.4973 84.1525 84.1525C89.4973 78.8078 92.5 71.5587 92.5 64C92.5 56.4413 89.4973 49.1922 84.1525 43.8475C78.8078 38.5027 71.5587 35.5 64 35.5C56.4413 35.5 49.1922 38.5027 43.8475 43.8475C38.5027 49.1922 35.5 56.4413 35.5 64ZM64 70C63.201 70.0181 62.4064 69.8763 61.6629 69.5831C60.9194 69.2898 60.242 68.851 59.6705 68.2924C59.0989 67.7338 58.6447 67.0666 58.3346 66.33C58.0244 65.5934 57.8646 64.8023 57.8644 64.003C57.8642 63.2038 58.0236 62.4126 58.3334 61.6759C58.6432 60.9391 59.0971 60.2717 59.6683 59.7128C60.2396 59.1539 60.9168 58.7147 61.6601 58.4211C62.4035 58.1275 63.198 57.9853 63.997 58.003C65.5647 58.0377 67.0565 58.6847 68.1531 59.8055C69.2497 60.9264 69.864 62.432 69.8644 64C69.8647 65.5681 69.2513 67.074 68.1552 68.1954C67.0592 69.3168 65.5677 69.9645 64 70Z" fill="white"/>
</svg>
