<svg width="128" height="128" viewBox="0 0 128 128" fill="none" xmlns="http://www.w3.org/2000/svg">
<path d="M76.1905 86.0952C76.1905 83.4683 77.234 80.949 79.0915 79.0915C80.949 77.234 83.4683 76.1905 86.0952 76.1905C88.7221 76.1905 91.2415 77.234 93.099 79.0915C94.9565 80.949 96 83.4683 96 86.0952C96 88.7221 94.9565 91.2415 93.099 93.099C91.2415 94.9565 88.7221 96 86.0952 96C83.4683 96 80.949 94.9565 79.0915 93.099C77.234 91.2415 76.1905 88.7221 76.1905 86.0952ZM32 86.0952C32 83.4683 33.0435 80.949 34.901 79.0915C36.7585 77.234 39.2779 76.1905 41.9048 76.1905C44.5317 76.1905 47.051 77.234 48.9085 79.0915C50.766 80.949 51.8095 83.4683 51.8095 86.0952C51.8095 88.7221 50.766 91.2415 48.9085 93.099C47.051 94.9565 44.5317 96 41.9048 96C39.2779 96 36.7585 94.9565 34.901 93.099C33.0435 91.2415 32 88.7221 32 86.0952ZM32 41.9048C32 39.2779 33.0435 36.7585 34.901 34.901C36.7585 33.0435 39.2779 32 41.9048 32C44.5317 32 47.051 33.0435 48.9085 34.901C50.766 36.7585 51.8095 39.2779 51.8095 41.9048C51.8095 44.5317 50.766 47.051 48.9085 48.9085C47.051 50.766 44.5317 51.8095 41.9048 51.8095C39.2779 51.8095 36.7585 50.766 34.901 48.9085C33.0435 47.051 32 44.5317 32 41.9048ZM41.9048 36.5714C41.2042 36.5716 40.5105 36.7098 39.8633 36.9781C39.2161 37.2464 38.6281 37.6395 38.1329 38.135C37.6376 38.6306 37.2449 39.2188 36.9769 39.8661C36.709 40.5135 36.5712 41.2072 36.5714 41.9078C36.5716 42.6084 36.7098 43.3021 36.9781 43.9493C37.2464 44.5964 37.6395 45.1844 38.135 45.6797C38.6306 46.1749 39.2188 46.5677 39.8661 46.8356C40.5135 47.1036 41.2072 47.2413 41.9078 47.2411C43.3227 47.2407 44.6795 46.6783 45.6797 45.6775C46.6799 44.6768 47.2415 43.3197 47.2411 41.9048C47.2407 40.4899 46.6783 39.1331 45.6775 38.1329C44.6768 37.1327 43.3197 36.571 41.9048 36.5714ZM41.9048 80.7619C40.4899 80.7623 39.1331 81.3248 38.1329 82.3255C37.1327 83.3263 36.571 84.6834 36.5714 86.0983C36.5718 87.5132 37.1343 88.87 38.135 89.8702C39.1358 90.8703 40.4929 91.432 41.9078 91.4316C42.6084 91.4314 43.3021 91.2932 43.9493 91.0249C44.5964 90.7567 45.1844 90.3635 45.6797 89.868C46.1749 89.3725 46.5677 88.7842 46.8356 88.1369C47.1036 87.4896 47.2413 86.7958 47.2411 86.0952C47.2409 85.3947 47.1028 84.701 46.8345 84.0538C46.5662 83.4066 46.1731 82.8186 45.6775 82.3234C45.182 81.8281 44.5938 81.4353 43.9464 81.1674C43.2991 80.8995 42.6053 80.7617 41.9048 80.7619ZM86.0952 80.7619C85.3947 80.7621 84.701 80.9003 84.0538 81.1686C83.4066 81.4369 82.8186 81.83 82.3234 82.3255C81.8281 82.8211 81.4353 83.4093 81.1674 84.0566C80.8995 84.7039 80.7617 85.3977 80.7619 86.0983C80.7621 86.7989 80.9003 87.4926 81.1686 88.1397C81.4369 88.7869 81.83 89.3749 82.3255 89.8702C82.8211 90.3654 83.4093 90.7582 84.0566 91.0261C84.7039 91.294 85.3977 91.4318 86.0983 91.4316C87.5132 91.4312 88.87 90.8688 89.8702 89.868C90.8703 88.8672 91.432 87.5101 91.4316 86.0952C91.4312 84.6803 90.8688 83.3236 89.868 82.3234C88.8672 81.3232 87.5101 80.7615 86.0952 80.7619Z" fill="white"/>
<path d="M68.215 32.6685C68.6364 33.0971 68.873 33.6781 68.873 34.2838C68.873 34.8895 68.6364 35.4705 68.215 35.8991L64.555 39.6174H76.75C79.7337 39.6174 82.5952 40.8215 84.705 42.9648C86.8147 45.1082 88 48.0152 88 51.0464V77.7142C88 78.3204 87.7629 78.9018 87.341 79.3305C86.919 79.7592 86.3467 80 85.75 80C85.1533 80 84.581 79.7592 84.159 79.3305C83.7371 78.9018 83.5 78.3204 83.5 77.7142V51.0464C83.5 49.2277 82.7888 47.4835 81.523 46.1975C80.2571 44.9115 78.5402 44.189 76.75 44.189H64.558L68.218 47.9072C68.6277 48.3385 68.8542 48.916 68.8488 49.5154C68.8434 50.1147 68.6065 50.6879 68.1891 51.1115C67.7717 51.5351 67.2073 51.7752 66.6174 51.7802C66.0274 51.7851 65.4592 51.5544 65.035 51.1378L57.535 43.5185C57.1136 43.0899 56.877 42.5089 56.877 41.9032C56.877 41.2974 57.1136 40.7164 57.535 40.2879L65.035 32.6685C65.4569 32.2404 66.0287 32 66.625 32C67.2213 32 67.7931 32.2404 68.215 32.6685ZM42.25 49.5225C42.8467 49.5225 43.419 49.7634 43.841 50.192C44.2629 50.6207 44.5 51.2021 44.5 51.8083V76.1903C44.5 76.7965 44.2629 77.378 43.841 77.8066C43.419 78.2353 42.8467 78.4761 42.25 78.4761C41.6533 78.4761 41.081 78.2353 40.659 77.8066C40.2371 77.378 40 76.7965 40 76.1903V51.8083C40 51.2021 40.2371 50.6207 40.659 50.192C41.081 49.7634 41.6533 49.5225 42.25 49.5225Z" fill="white"/>
</svg>
