<svg width="128" height="128" viewBox="0 0 128 128" fill="none" xmlns="http://www.w3.org/2000/svg">
<path d="M36.3236 66.0236C36.7848 65.9683 37.2524 66.0044 37.6997 66.13C38.147 66.2556 38.5651 66.4681 38.9303 66.7554C39.2954 67.0427 39.6004 67.3992 39.8277 67.8045C40.0551 68.2098 40.2004 68.6559 40.2553 69.1174C40.8561 74.0882 42.8822 78.7789 46.0889 82.6232C49.2957 86.4675 53.5462 89.3011 58.3272 90.7821C63.1083 92.2631 68.2157 92.3281 73.0329 90.9693C77.8501 89.6105 82.1712 86.8859 85.4747 83.1245L79.7987 77.4462C79.6335 77.2813 79.5209 77.071 79.4752 76.842C79.4296 76.613 79.4529 76.3756 79.5423 76.1599C79.6317 75.9442 79.7831 75.7599 79.9773 75.6304C80.1715 75.5009 80.3997 75.432 80.6331 75.4324H97.8214C98.134 75.4324 98.4338 75.5566 98.6548 75.7777C98.8758 75.9988 99 76.2987 99 76.6114V93.8066C99.0004 94.0401 98.9315 94.2685 98.802 94.4628C98.6726 94.6571 98.4883 94.8085 98.2727 94.8979C98.0571 94.9873 97.8198 95.0107 97.5909 94.965C97.362 94.9194 97.1518 94.8067 96.987 94.6414L90.4813 88.1331C86.2349 92.8282 80.7288 96.203 74.619 97.8555C68.5092 99.508 62.0533 99.3684 56.0206 97.4535C49.9878 95.5385 44.6326 91.9288 40.5929 87.0546C36.5532 82.1804 33.9994 76.247 33.2357 69.9616C33.1804 69.5002 33.2166 69.0323 33.3421 68.5849C33.4676 68.1374 33.6801 67.7191 33.9673 67.3538C34.2545 66.9886 34.6108 66.6835 35.0159 66.456C35.421 66.2286 35.867 66.0832 36.3283 66.0283L36.3236 66.0236ZM66 40.061C62.3135 40.0571 58.6687 40.8415 55.31 42.3617C51.9512 43.882 48.9561 46.1028 46.5253 48.8755L52.2013 54.5538C52.3665 54.7187 52.4791 54.929 52.5248 55.158C52.5704 55.387 52.5471 55.6244 52.4577 55.8401C52.3683 56.0558 52.2169 56.2401 52.0227 56.3696C51.8285 56.4991 51.6003 56.568 51.3669 56.5676H34.1786C33.866 56.5676 33.5662 56.4434 33.3452 56.2223C33.1242 56.0012 33 55.7013 33 55.3886V38.1934C32.9996 37.9599 33.0685 37.7315 33.198 37.5372C33.3274 37.3429 33.5117 37.1915 33.7273 37.1021C33.9429 37.0127 34.1802 36.9893 34.4091 37.035C34.638 37.0806 34.8482 37.1933 35.013 37.3586L41.5187 43.8669C45.7651 39.1718 51.2712 35.797 57.381 34.1445C63.4908 32.492 69.9467 32.6316 75.9794 34.5465C82.0122 36.4615 87.3674 40.0712 91.4071 44.9454C95.4468 49.8196 98.0006 55.7529 98.7643 62.0384C98.8756 62.9703 98.6123 63.9082 98.0323 64.6458C97.4523 65.3834 96.6032 65.8604 95.6717 65.9717C94.7402 66.083 93.8027 65.8196 93.0654 65.2394C92.328 64.6592 91.8513 63.8097 91.74 62.8779C90.9773 56.5852 87.9378 50.7897 83.1955 46.5859C78.4531 42.3821 72.3362 40.061 66 40.061Z" fill="white"/>
</svg>
