<svg width="128" height="128" viewBox="0 0 128 128" fill="none" xmlns="http://www.w3.org/2000/svg">
<path d="M59.5 46.25H55V50.8125H59.5V46.25ZM59.5 37.125H55V41.6875H59.5V37.125ZM86.5 28H41.5C41.5 28 37 28 37 32.5625V87.3125C37 91.875 41.5 91.875 41.5 91.875H50.5V101L57.25 94.1562L64 101V91.875H86.5C86.5 91.875 91 91.7948 91 87.3125V32.5625C91 28 86.5 28 86.5 28ZM86.5 82.75C86.5 87.1432 82 87.3125 82 87.3125H64V82.75H50.5V87.3125H46C41.5 87.3125 41.5 82.75 41.5 82.75V78.1875H86.5V82.75ZM86.5 73.625H50.5V32.5625H86.5703L86.5 73.625ZM59.5 64.5H55V69.0625H59.5V64.5ZM59.5 55.375H55V59.9375H59.5V55.375Z" fill="white"/>
</svg>
